<svg width="128" height="128" viewBox="0 0 128 128" fill="none" xmlns="http://www.w3.org/2000/svg">
<path d="M14.9854 27.7123C14.7484 20.8973 20.0574 14.6133 27.2344 14.6133H100.774C107.951 14.6133 113.26 20.8973 113.023 27.7123C112.795 34.2583 113.091 42.7383 115.225 49.6523C117.366 56.5883 120.976 60.9713 126.889 61.5353V67.9223C120.976 68.4863 117.366 72.8693 115.225 79.8053C113.091 86.7193 112.795 95.1993 113.023 101.745C113.26 108.56 107.951 114.843 100.774 114.843H27.2344C20.0574 114.843 14.7484 108.559 14.9854 101.745C15.2134 95.1993 14.9174 86.7193 12.7824 79.8053C10.6424 72.8703 7.02238 68.4863 1.10938 67.9223V61.5353C7.02238 60.9723 10.6424 56.5883 12.7824 49.6523C14.9174 42.7383 15.2124 34.2583 14.9854 27.7123V27.7123Z" fill="url(#paint0_linear_136_21784)"/>
<g filter="url(#filter0_d_136_21784)">
<path d="M67.1087 91.7359C78.7277 91.7359 85.7292 86.047 85.7292 76.6635C85.7292 69.5705 80.7335 64.4355 73.3155 63.6226V63.3271C78.7655 62.4405 83.0422 57.3794 83.0422 51.7273C83.0422 43.6738 76.684 38.4277 66.9952 38.4277H45.1953V91.7359H67.1087ZM53.673 45.1883H64.9515C71.0827 45.1883 74.5645 47.922 74.5645 52.8723C74.5645 58.1552 70.515 61.1105 63.1727 61.1105H53.673V45.1883ZM53.673 84.9754V67.4276H64.8756C72.8991 67.4276 77.0623 70.3829 77.0623 76.1461C77.0623 81.9091 73.0129 84.9754 65.3677 84.9754H53.673Z" fill="url(#paint1_linear_136_21784)"/>
<path d="M67.1087 91.7359C78.7277 91.7359 85.7292 86.047 85.7292 76.6635C85.7292 69.5705 80.7335 64.4355 73.3155 63.6226V63.3271C78.7655 62.4405 83.0422 57.3794 83.0422 51.7273C83.0422 43.6738 76.684 38.4277 66.9952 38.4277H45.1953V91.7359H67.1087ZM53.673 45.1883H64.9515C71.0827 45.1883 74.5645 47.922 74.5645 52.8723C74.5645 58.1552 70.515 61.1105 63.1727 61.1105H53.673V45.1883ZM53.673 84.9754V67.4276H64.8756C72.8991 67.4276 77.0623 70.3829 77.0623 76.1461C77.0623 81.9091 73.0129 84.9754 65.3677 84.9754H53.673Z" stroke="white" stroke-width="0.24566"/>
</g>
<defs>
<filter id="filter0_d_136_21784" x="41.1417" y="35.357" width="48.6404" height="61.4151" filterUnits="userSpaceOnUse" color-interpolation-filters="sRGB">
<feFlood flood-opacity="0" result="BackgroundImageFix"/>
<feColorMatrix in="SourceAlpha" type="matrix" values="0 0 0 0 0 0 0 0 0 0 0 0 0 0 0 0 0 0 127 0" result="hardAlpha"/>
<feOffset dy="0.98264"/>
<feGaussianBlur stdDeviation="1.96528"/>
<feColorMatrix type="matrix" values="0 0 0 0 0 0 0 0 0 0 0 0 0 0 0 0 0 0 0.15 0"/>
<feBlend mode="normal" in2="BackgroundImageFix" result="effect1_dropShadow_136_21784"/>
<feBlend mode="normal" in="SourceGraphic" in2="effect1_dropShadow_136_21784" result="shape"/>
</filter>
<linearGradient id="paint0_linear_136_21784" x1="19.7999" y1="17.2659" x2="129.708" y2="104.513" gradientUnits="userSpaceOnUse">
<stop stop-color="#9013FE"/>
<stop offset="1" stop-color="#6610F2"/>
</linearGradient>
<linearGradient id="paint1_linear_136_21784" x1="49.0306" y1="41.9358" x2="73.5966" y2="83.4842" gradientUnits="userSpaceOnUse">
<stop stop-color="white"/>
<stop offset="1" stop-color="#F1E5FC"/>
</linearGradient>
</defs>
</svg>
