<svg width="128" height="128" viewBox="0 0 128 128" fill="none" xmlns="http://www.w3.org/2000/svg">
<path d="M65.3002 55.4C68.1002 58 69.5002 61.5 69.5002 66C69.5002 70.5 68.1002 74.1 65.4002 76.8C62.7002 79.4 58.5002 80.8 53.0002 80.8H43.2002V51.7H53.3002C58.5002 51.7 62.5002 52.9 65.3002 55.4V55.4ZM60.5002 72.6999C62.1002 71.1999 62.9002 68.9999 62.9002 66.0999C62.9002 63.1999 62.1002 61 60.5002 59.4C58.9002 57.9 56.4002 57 53.1002 57H49.3002V75H53.5002C56.6002 75 58.9002 74.1999 60.5002 72.6999V72.6999ZM92.6002 80.8H86.8002V78C85.1002 80 83.2002 81 80.8002 81C78.4002 81 76.4002 80.3 74.8002 78.9C73.2002 77.5 72.4002 75.7 72.4002 73.4C72.4002 71.1 73.2002 69.4 74.9002 68.3C76.6002 67.2 78.9002 66.5999 81.8002 66.5999H86.4002V66.4C86.4002 64 85.2002 62.7999 82.6002 62.7999C81.5002 62.7999 80.4002 63 79.2002 63.4C78.0002 63.8 77.0002 64.4 76.1002 65L73.3002 60.9C76.3002 58.7 79.6002 57.7 83.4002 57.7C86.1002 57.7 88.3002 58.3999 90.0002 59.7999C91.7002 61.1999 92.5002 63.3 92.5002 66.3V80.8H92.6002V80.8ZM86.3002 72.1999V71.3H82.4002C79.9002 71.3 78.6002 72 78.6002 73.5C78.6002 74.3 78.9002 74.9 79.5002 75.3C80.1002 75.7 80.9002 75.9 82.1002 75.9C83.2002 75.9 84.2002 75.6 85.0002 74.9C85.9002 74.2 86.3002 73.2999 86.3002 72.1999V72.1999ZM109.1 63.7999C107.2 63.7999 105.7 64.4 104.8 65.8C103.9 67.1 103.3 68.8999 103.3 71.0999V80.9H97.1002V58.4H103.3V61.2999C104.1 60.3999 105.3 59.6 106.5 59C107.7 58.4 109.1 58 110.4 58V63.9L109.1 63.7999V63.7999ZM120.4 62.9V72.8C120.4 73.7 120.6 74.3 121.1 74.8C121.5 75.3 122.1 75.5 122.7 75.5C123.9 75.5 124.9 75 125.7 73.9L128 78.3C126.1 80.1 124 81 121.9 81C119.7 81 117.9 80.3 116.4 78.9C114.9 77.5 114.2 75.4999 114.2 73.0999V51.7H120.4V58H127L123.6 63L120.4 62.9V62.9Z" fill="#231F20"/>
<path d="M9.29961 56.2996L7.09961 54.0996V70.4996C7.09961 70.7996 7.19961 71.1996 7.29961 71.5996L24.5996 77.6996L28.8996 75.7996L9.29961 56.2996Z" fill="#00C4B3"/>
<path d="M28.8998 75.9L24.5998 77.8L7.2998 71.7C7.5998 73 8.2998 74.4 9.0998 75.2L14.6998 80.8H27.1998L28.8998 75.9Z" fill="#22D3C5"/>
<path d="M0.499656 64.1996C-0.100345 64.7996 0.199656 65.9996 1.09966 66.9996L4.99966 70.8996L7.39966 71.7996C7.29966 71.3996 7.19966 70.9996 7.19966 70.6996V69.9996L7.09966 54.0996" fill="#0075C9"/>
<path d="M28.8996 75.8996L30.7996 71.5996L24.6996 54.2996C24.2996 54.1996 23.8996 54.0996 23.5996 54.0996H7.09961" fill="#0075C9"/>
<path d="M28.9002 75.9001L33.6002 74.4001V61.5L28.2002 56.1C27.4002 55.3 26.0002 54.6 24.7002 54.3L30.8002 71.6" fill="#00A8E1"/>
<path d="M23.8996 51.9L19.8996 48C18.9996 47.1 17.7996 46.8 17.1996 47.4L7.09961 54.1H23.5996C23.8996 54.1 24.2996 54.2 24.6996 54.3L23.8996 51.9V51.9Z" fill="#00C4B3"/>
</svg>
