<svg width="128" height="128" viewBox="0 0 128 128" fill="none" xmlns="http://www.w3.org/2000/svg">
<path d="M35.387 71.79L32.5 70.128L64.652 14.698L67.535 16.354L35.387 71.79Z" fill="#E434AA"/>
<path d="M31.8398 65.7H96.1398V69.02H31.8398V65.7Z" fill="#E434AA"/>
<path d="M65.2733 86.0501L33.1133 67.5661L34.7773 64.6911L66.9413 83.1761L65.2733 86.0501ZM93.2153 37.8711L61.0503 19.3871L62.7183 16.5161L94.8793 35.0001L93.2153 37.8711Z" fill="#E434AA"/>
<path d="M34.7851 37.8599L33.1211 34.9879L65.2851 16.5039L66.9491 19.3749L34.7851 37.8599Z" fill="#E434AA"/>
<path d="M92.6197 71.79L60.4687 16.354L63.3547 14.698L95.5077 70.128L92.6197 71.79ZM34.3887 32.79H37.7217V69.758H34.3887V32.79Z" fill="#E434AA"/>
<path d="M90.2773 32.79H93.6093V69.758H90.2773V32.79Z" fill="#E434AA"/>
<path d="M64.707 84.6451L63.25 82.1371L91.223 66.0591L92.68 68.5661L64.707 84.6451Z" fill="#E434AA"/>
<path d="M98.0266 70.836C96.1016 74.176 91.8046 75.313 88.4526 73.395C87.6561 72.9397 86.9575 72.3314 86.3969 71.6052C85.8363 70.879 85.4247 70.0491 85.1859 69.1633C84.9471 68.2775 84.8857 67.3532 85.0052 66.4436C85.1248 65.534 85.423 64.657 85.8826 63.863C87.8086 60.523 92.1046 59.387 95.4566 61.305C98.8316 63.242 99.9766 67.5 98.0266 70.835M42.0976 38.684C40.1716 42.02 35.8746 43.16 32.5226 41.242C31.7262 40.7862 31.0277 40.1776 30.4672 39.4511C29.9067 38.7246 29.4953 37.8945 29.2565 37.0085C29.0177 36.1225 28.9562 35.1981 29.0757 34.2883C29.1952 33.3785 29.4932 32.5013 29.9526 31.707C31.8786 28.371 36.1756 27.23 39.5266 29.148C42.8786 31.09 44.0226 35.344 42.0966 38.684M29.9726 70.836C28.0426 67.5 29.1876 63.242 32.5426 61.305C35.8946 59.387 40.1716 60.523 42.1166 63.863C44.0466 67.199 42.9016 71.457 39.5466 73.395C36.1756 75.313 31.8976 74.175 29.9726 70.835M85.9016 38.684C83.9766 35.344 85.1216 31.09 88.4716 29.148C91.8236 27.23 96.1016 28.371 98.0466 31.707C99.9766 35.047 98.8316 39.301 95.4766 41.242C92.1246 43.16 87.8276 42.02 85.9016 38.684ZM63.9996 90.402C60.1246 90.402 56.9916 87.285 56.9916 83.426C56.9916 79.57 60.1246 76.453 63.9996 76.453C67.8746 76.453 71.0076 79.57 71.0076 83.426C71.0076 87.262 67.8746 90.402 63.9996 90.402M63.9996 26.094C60.1246 26.094 56.9916 22.977 56.9916 19.117C56.9916 15.262 60.1246 12.145 63.9996 12.145C67.8746 12.145 71.0076 15.262 71.0076 19.117C71.0076 22.977 67.8746 26.094 63.9996 26.094M106.625 121.508C106.542 121.512 106.46 121.5 106.382 121.471C106.305 121.442 106.234 121.397 106.175 121.34C106.117 121.281 106.072 121.21 106.042 121.133C106.013 121.055 106 120.973 106.004 120.89V102.426C106.004 102.238 106.062 102.086 106.176 101.973C106.235 101.916 106.305 101.871 106.383 101.843C106.46 101.814 106.542 101.801 106.625 101.805H107.165C107.352 101.805 107.504 101.859 107.617 101.973C107.674 102.033 107.718 102.104 107.747 102.182C107.776 102.26 107.789 102.343 107.785 102.426V119.82H117.543C117.75 119.82 117.91 119.875 118.023 119.988C118.137 120.102 118.191 120.262 118.191 120.465V120.891C118.195 120.973 118.182 121.056 118.153 121.133C118.124 121.21 118.08 121.281 118.023 121.34C117.91 121.453 117.75 121.508 117.543 121.508H106.625ZM100.094 123.336C99.9926 123.337 99.8925 123.316 99.8002 123.275C99.7079 123.234 99.6255 123.174 99.5586 123.098C99.4314 122.966 99.3087 122.831 99.1906 122.691L97.9446 120.973C96.8156 121.516 95.4956 121.789 93.9876 121.789C92.4216 121.789 91.0936 121.512 89.9996 120.961C88.9056 120.406 88.0656 119.551 87.4836 118.398C86.8976 117.242 86.5776 115.785 86.5236 114.02C86.5036 113.176 86.4916 112.387 86.4916 111.656C86.4916 110.926 86.5036 110.136 86.5226 109.293C86.5776 107.547 86.9176 106.098 87.5386 104.941C88.1596 103.789 89.0226 102.93 90.1286 102.367C91.2296 101.805 92.5156 101.523 93.9886 101.523C95.4566 101.523 96.7416 101.805 97.8476 102.367C98.9486 102.93 99.8156 103.789 100.449 104.941C101.079 106.098 101.414 107.547 101.453 109.293C101.487 110.08 101.506 110.868 101.508 111.656C101.508 112.386 101.488 113.176 101.453 114.02C101.359 116.703 100.668 118.676 99.3866 119.934L101.199 122.464C101.221 122.494 101.24 122.528 101.254 122.563C101.274 122.609 101.281 122.68 101.281 122.773C101.281 122.847 101.267 122.92 101.238 122.988C101.209 123.056 101.166 123.117 101.113 123.168C101.062 123.221 101.001 123.264 100.933 123.293C100.865 123.322 100.792 123.336 100.719 123.336H100.094ZM93.9876 120.102C95.6086 120.102 96.9406 119.613 97.9876 118.637C99.0346 117.66 99.5936 116.074 99.6716 113.879C99.7066 113.035 99.7266 112.293 99.7266 111.656C99.7266 111.02 99.7066 110.277 99.6716 109.434C99.6316 107.969 99.3626 106.777 98.8626 105.859C98.3626 104.938 97.6946 104.269 96.8546 103.844C96.0196 103.422 95.0616 103.211 93.9876 103.211C92.9296 103.211 91.9836 103.421 91.1446 103.844C90.3046 104.27 89.6366 104.938 89.1366 105.859C88.6366 106.777 88.3586 107.969 88.3046 109.434C88.2846 110.277 88.2726 111.02 88.2726 111.656C88.2726 112.293 88.2846 113.036 88.3046 113.879C88.3786 116.074 88.9446 117.66 89.9996 118.637C91.0546 119.613 92.3826 120.102 93.9876 120.102ZM70.8546 121.508C70.7723 121.512 70.6899 121.499 70.6127 121.47C70.5355 121.442 70.465 121.397 70.4056 121.34C70.3477 121.281 70.3025 121.21 70.273 121.133C70.2434 121.055 70.23 120.973 70.2336 120.89V102.14C70.2336 101.953 70.2926 101.805 70.4056 101.691C70.4651 101.634 70.5358 101.589 70.6132 101.56C70.6906 101.531 70.7731 101.519 70.8556 101.523H71.3356C71.5266 101.523 71.6756 101.578 71.7886 101.691C71.8465 101.75 71.8917 101.821 71.9212 101.898C71.9508 101.976 71.9642 102.058 71.9606 102.141V108.812C72.464 108.159 73.0939 107.615 73.8126 107.211C74.5386 106.797 75.5026 106.59 76.7106 106.59C77.9916 106.59 79.0626 106.867 79.9176 107.422C80.7776 107.972 81.4176 108.722 81.8436 109.672C82.2656 110.622 82.4796 111.695 82.4796 112.895V120.891C82.4832 120.974 82.4699 121.056 82.4405 121.133C82.4111 121.21 82.3662 121.281 82.3086 121.34C82.2485 121.398 82.1772 121.442 82.0991 121.471C82.021 121.5 81.9378 121.513 81.8546 121.508H81.3746C81.2916 121.512 81.2087 121.499 81.1308 121.471C81.053 121.442 80.9818 121.397 80.9216 121.34C80.8643 121.28 80.8198 121.21 80.7909 121.132C80.762 121.055 80.7493 120.973 80.7536 120.89V113.035C80.7536 111.535 80.3866 110.355 79.6516 109.504C78.9136 108.648 77.8396 108.223 76.4256 108.223C75.0896 108.223 74.0116 108.648 73.1906 109.503C72.3706 110.355 71.9606 111.535 71.9606 113.035V120.891C71.9641 120.974 71.9506 121.056 71.921 121.133C71.8915 121.211 71.8464 121.281 71.7886 121.34C71.7286 121.398 71.6575 121.442 71.5795 121.471C71.5016 121.5 71.4186 121.513 71.3356 121.508H70.8546ZM54.4296 126.855C54.3466 126.86 54.2636 126.847 54.1857 126.818C54.1077 126.789 54.0366 126.745 53.9766 126.687C53.9188 126.628 53.8737 126.558 53.8442 126.48C53.8146 126.403 53.8011 126.321 53.8046 126.238V107.492C53.8046 107.305 53.8626 107.152 53.9766 107.039C54.0366 106.981 54.1077 106.937 54.1857 106.908C54.2636 106.879 54.3466 106.867 54.4296 106.871H54.9096C55.0976 106.871 55.2496 106.926 55.3626 107.039C55.4198 107.099 55.4642 107.17 55.4931 107.248C55.522 107.326 55.5347 107.409 55.5306 107.492V108.812C56.0036 108.176 56.6206 107.645 57.3826 107.222C58.1476 106.801 59.1126 106.59 60.2806 106.59C61.3946 106.59 62.3276 106.781 63.0816 107.168C63.806 107.526 64.4351 108.051 64.9176 108.699C65.3906 109.339 65.7376 110.051 65.9646 110.839C66.1906 111.629 66.3116 112.434 66.3316 113.262C66.3516 113.543 66.3586 113.852 66.3586 114.192C66.3586 114.527 66.3516 114.836 66.3316 115.117C66.3139 115.937 66.1905 116.751 65.9646 117.539C65.7376 118.329 65.3906 119.039 64.9176 119.679C64.4353 120.328 63.8061 120.853 63.0816 121.211C62.3276 121.598 61.3946 121.789 60.2816 121.789C59.1126 121.789 58.1476 121.574 57.3816 121.141C56.6216 120.711 56.0036 120.184 55.5316 119.566V126.238C55.5357 126.321 55.5229 126.403 55.4938 126.481C55.4647 126.558 55.4201 126.629 55.3626 126.688C55.3023 126.745 55.2311 126.789 55.1532 126.818C55.0754 126.847 54.9925 126.859 54.9096 126.855H54.4296ZM60.1126 120.156C61.2226 120.156 62.1016 119.914 62.7426 119.426C63.3826 118.938 63.8646 118.272 64.1286 117.512C64.4096 116.722 64.5696 115.879 64.6086 114.977C64.6242 114.452 64.6242 113.927 64.6086 113.402C64.5768 112.538 64.415 111.683 64.1286 110.867C63.8633 110.107 63.3811 109.442 62.7416 108.953C62.1016 108.465 61.2216 108.223 60.1126 108.223C59.0386 108.223 58.1716 108.477 57.5116 108.98C56.8638 109.472 56.3605 110.129 56.0546 110.883C55.75 111.612 55.5727 112.387 55.5306 113.176C55.5106 113.457 55.5036 113.824 55.5036 114.273C55.5036 114.723 55.5116 115.09 55.5306 115.371C55.5506 116.121 55.7226 116.863 56.0546 117.594C56.3824 118.327 56.9003 118.96 57.5546 119.426C58.2226 119.914 59.0746 120.156 60.1126 120.156V120.156ZM42.5816 121.79C41.7146 121.799 40.8574 121.606 40.0776 121.227C39.3495 120.879 38.715 120.362 38.2266 119.719C37.7602 119.11 37.5113 118.361 37.5196 117.594C37.5196 116.32 38.0396 115.297 39.0736 114.527C40.1086 113.757 41.4566 113.262 43.1166 113.035L47.5856 112.418V111.43C47.5856 110.437 47.2766 109.652 46.6676 109.082C46.0546 108.508 45.0776 108.222 43.7376 108.222C42.7576 108.222 41.9676 108.414 41.3626 108.801C40.7616 109.184 40.3476 109.687 40.1206 110.305C40.0266 110.585 39.8476 110.727 39.5816 110.727H39.1316C38.9056 110.727 38.7456 110.668 38.6476 110.543C38.5529 110.419 38.5035 110.265 38.5076 110.109C38.5076 109.844 38.6086 109.516 38.8046 109.125C39.0036 108.73 39.3086 108.34 39.7266 107.953C40.1406 107.57 40.6756 107.246 41.3356 106.984C41.9956 106.723 42.7956 106.59 43.7376 106.59C44.8516 106.59 45.7696 106.738 46.4956 107.04C47.2226 107.34 47.7886 107.73 48.1956 108.207C48.5976 108.687 48.8856 109.219 49.0546 109.797C49.2266 110.379 49.3086 110.953 49.3086 111.516V120.891C49.3127 120.973 49.2999 121.056 49.271 121.133C49.2422 121.21 49.1978 121.281 49.1406 121.34C49.0804 121.397 49.0092 121.442 48.9313 121.471C48.8535 121.499 48.7705 121.512 48.6876 121.508H48.2066C48.1236 121.512 48.0407 121.499 47.9628 121.471C47.885 121.442 47.8138 121.397 47.7536 121.34C47.6963 121.28 47.6518 121.21 47.6229 121.132C47.594 121.055 47.5813 120.973 47.5856 120.89V119.566C47.3165 119.949 46.9928 120.29 46.6246 120.578C46.2106 120.918 45.6746 121.203 45.0266 121.438C44.3746 121.672 43.5616 121.789 42.5816 121.789V121.79ZM42.8626 120.156C43.7296 120.156 44.5226 119.969 45.2376 119.594C45.9526 119.219 46.5226 118.641 46.9486 117.864C47.3746 117.086 47.5856 116.105 47.5856 114.922V113.965L43.9376 114.473C42.3906 114.676 41.2226 115.035 40.4296 115.539C39.6396 116.047 39.2416 116.684 39.2416 117.453C39.2416 118.074 39.4216 118.582 39.7816 118.977C40.1406 119.367 40.5976 119.664 41.1516 119.859C41.7066 120.059 42.2766 120.156 42.8626 120.156V120.156ZM29.6286 121.508C29.5456 121.512 29.4627 121.499 29.3848 121.471C29.307 121.442 29.2358 121.397 29.1756 121.34C29.1191 121.28 29.0751 121.209 29.0462 121.132C29.0174 121.055 29.0043 120.972 29.0076 120.89V107.52C29.0076 107.332 29.0656 107.176 29.1756 107.055C29.2337 106.994 29.3042 106.946 29.3823 106.914C29.4604 106.883 29.5444 106.868 29.6286 106.871H30.0816C30.2696 106.871 30.4256 106.934 30.5506 107.055C30.6111 107.116 30.6585 107.189 30.6899 107.269C30.7214 107.349 30.7362 107.434 30.7336 107.52V108.813C31.0494 108.178 31.5661 107.664 32.2036 107.352C32.8436 107.032 33.6366 106.872 34.5776 106.872H35.6246C35.8126 106.872 35.9646 106.926 36.0776 107.039C36.1348 107.099 36.1792 107.17 36.2081 107.248C36.237 107.326 36.2497 107.409 36.2456 107.492V107.882C36.2456 108.074 36.1906 108.222 36.0776 108.336C36.0174 108.393 35.9462 108.438 35.8683 108.467C35.7905 108.495 35.7075 108.508 35.6246 108.504H34.4096C33.2766 108.504 32.3826 108.832 31.7226 109.488C31.0626 110.145 30.7336 111.039 30.7336 112.164V120.891C30.7369 120.975 30.7223 121.058 30.6907 121.135C30.6591 121.213 30.6114 121.283 30.5506 121.34C30.4217 121.454 30.2537 121.514 30.0816 121.508H29.6286ZM17.3866 121.79C15.7656 121.79 14.4016 121.477 13.3006 120.848C12.2188 120.24 11.3428 119.323 10.7846 118.215C10.2066 117.09 9.89459 115.793 9.83459 114.332C9.81559 113.484 9.80859 112.594 9.80859 111.656C9.80859 110.719 9.81559 109.828 9.83559 108.98C9.89459 107.5 10.2066 106.2 10.7856 105.082C11.35 103.978 12.2308 103.066 13.3156 102.465C14.4256 101.835 15.7856 101.523 17.3856 101.523C18.6876 101.523 19.8006 101.715 20.7226 102.102C21.6476 102.484 22.4026 102.965 22.9836 103.535C23.5696 104.109 24.0036 104.684 24.2846 105.265C24.5696 105.848 24.7186 106.335 24.7376 106.73C24.7505 106.804 24.7444 106.88 24.7199 106.952C24.6955 107.023 24.6534 107.087 24.5976 107.137C24.4725 107.246 24.3101 107.302 24.1446 107.293H23.5226C23.3516 107.293 23.2296 107.25 23.1556 107.168C23.0776 107.082 23.0036 106.938 22.9296 106.73C22.722 106.117 22.3996 105.548 21.9796 105.055C21.5396 104.52 20.9446 104.078 20.1996 103.735C19.4566 103.387 18.5156 103.211 17.3866 103.211C15.7066 103.211 14.3466 103.668 13.3006 104.578C12.2536 105.488 11.6946 107.004 11.6166 109.125C11.5619 110.813 11.5619 112.503 11.6166 114.191C11.6946 116.293 12.2536 117.801 13.3006 118.723C14.3476 119.641 15.7066 120.102 17.3866 120.102C18.4996 120.102 19.4966 119.891 20.3826 119.469C21.2647 119.052 21.9962 118.372 22.4766 117.523C22.9836 116.653 23.2376 115.539 23.2376 114.191V112.754H18.3196C18.2354 112.757 18.1514 112.743 18.0733 112.711C17.9952 112.679 17.9247 112.631 17.8666 112.57C17.7519 112.443 17.6916 112.276 17.6986 112.105V111.711C17.6986 111.508 17.7536 111.348 17.8666 111.234C17.9268 111.177 17.998 111.132 18.0758 111.104C18.1537 111.075 18.2366 111.062 18.3196 111.066H24.3706C24.5776 111.066 24.7376 111.121 24.8506 111.234C24.9646 111.348 25.0196 111.508 25.0196 111.711V114.191C25.0196 115.691 24.7226 117.016 24.1286 118.161C23.548 119.292 22.6416 120.222 21.5266 120.832C20.3866 121.469 19.0066 121.789 17.3866 121.789V121.79Z" fill="#E434AA"/>
</svg>
