<svg width="128" height="128" viewBox="0 0 128 128" fill="none" xmlns="http://www.w3.org/2000/svg">
<path d="M114.324 80.749C114.034 80.749 113.746 80.673 113.492 80.525L110.842 78.957C110.446 78.736 110.639 78.657 110.77 78.612C111.298 78.428 111.405 78.385 111.968 78.067C112.027 78.034 112.104 78.046 112.165 78.082L114.2 79.291C114.238 79.3112 114.28 79.3218 114.323 79.3218C114.366 79.3218 114.409 79.3112 114.446 79.291L122.383 74.71C122.421 74.688 122.452 74.6565 122.473 74.6188C122.495 74.5811 122.506 74.5384 122.505 74.495V65.335C122.505 65.291 122.494 65.2478 122.473 65.2094C122.451 65.171 122.42 65.1389 122.382 65.116L114.448 60.539C114.411 60.5184 114.369 60.5075 114.326 60.5075C114.283 60.5075 114.241 60.5184 114.203 60.539L106.27 65.117C106.233 65.1397 106.202 65.1717 106.18 65.2098C106.158 65.248 106.146 65.2911 106.145 65.335V74.495C106.145 74.583 106.194 74.666 106.27 74.707L108.444 75.964C109.624 76.553 110.347 75.859 110.347 75.161V66.116C110.347 65.989 110.45 65.888 110.577 65.888H111.584C111.709 65.888 111.813 65.989 111.813 66.116V75.161C111.813 76.735 110.956 77.638 109.463 77.638C109.004 77.638 108.643 77.638 107.635 77.142L105.554 75.944C105.301 75.7964 105.091 75.5851 104.945 75.331C104.799 75.0769 104.722 74.789 104.722 74.496V65.336C104.722 64.741 105.039 64.186 105.554 63.89L113.491 59.303C113.747 59.1638 114.034 59.0908 114.325 59.0908C114.616 59.0908 114.903 59.1638 115.158 59.303L123.095 63.89C123.609 64.187 123.928 64.742 123.928 65.336V74.496C123.928 74.7891 123.851 75.0769 123.705 75.3309C123.559 75.5849 123.348 75.7963 123.095 75.944L115.158 80.526C114.905 80.673 114.617 80.75 114.324 80.749ZM116.777 74.438C113.302 74.438 112.575 72.843 112.575 71.506C112.576 71.4452 112.6 71.3869 112.643 71.344C112.686 71.3011 112.745 71.277 112.805 71.277H113.831C113.886 71.2768 113.939 71.2963 113.981 71.3318C114.023 71.3674 114.051 71.4168 114.059 71.471C114.213 72.516 114.676 73.043 116.777 73.043C118.448 73.043 119.16 72.665 119.16 71.777C119.16 71.265 118.958 70.886 116.36 70.631C114.188 70.416 112.845 69.937 112.845 68.198C112.845 66.597 114.195 65.641 116.457 65.641C119 65.641 120.258 66.524 120.417 68.418C120.42 68.4499 120.416 68.4819 120.406 68.5122C120.395 68.5425 120.379 68.5703 120.357 68.594C120.336 68.6168 120.31 68.6349 120.281 68.6475C120.252 68.66 120.221 68.6667 120.189 68.667H119.158C119.106 68.6671 119.056 68.6494 119.015 68.6168C118.975 68.5843 118.947 68.5388 118.935 68.488C118.687 67.388 118.087 67.037 116.456 67.037C114.631 67.037 114.419 67.674 114.419 68.149C114.419 68.726 114.669 68.894 117.134 69.22C119.573 69.543 120.732 69.999 120.732 71.714C120.733 73.447 119.291 74.438 116.777 74.438M97.9814 68.43C98.2944 68.247 98.4874 67.913 98.4874 67.55V65.196C98.4874 64.834 98.2954 64.5 97.9814 64.317L89.6174 59.461C89.4627 59.3711 89.2871 59.3235 89.1082 59.3232C88.9293 59.3228 88.7534 59.3697 88.5984 59.459L80.1824 64.318C80.0281 64.4073 79.8999 64.5357 79.8108 64.6901C79.7216 64.8445 79.6746 65.0197 79.6744 65.198V74.914C79.6744 75.279 79.8704 75.617 80.1884 75.798L88.5514 80.563C88.8594 80.74 89.2374 80.741 89.5484 80.569L94.6064 77.757C94.6851 77.7133 94.7509 77.6495 94.7968 77.572C94.8428 77.4946 94.8673 77.4063 94.8679 77.3163C94.8685 77.2262 94.8452 77.1376 94.8003 77.0596C94.7554 76.9815 94.6905 76.9168 94.6124 76.872L86.1444 72.012C86.0667 71.9678 86.0021 71.9037 85.9572 71.8265C85.9122 71.7492 85.8885 71.6614 85.8884 71.572V68.526C85.8884 68.344 85.9854 68.177 86.1424 68.087L88.7794 66.567C88.8564 66.5223 88.9439 66.4988 89.0329 66.4988C89.1219 66.4988 89.2094 66.5223 89.2864 66.567L91.9234 68.087C92.0008 68.1313 92.065 68.1952 92.1098 68.2723C92.1546 68.3494 92.1782 68.4369 92.1784 68.526V70.922C92.1779 71.0116 92.2011 71.0997 92.2457 71.1774C92.2903 71.2551 92.3547 71.3196 92.4324 71.3643C92.51 71.409 92.5981 71.4324 92.6877 71.432C92.7773 71.4316 92.8652 71.4074 92.9424 71.362L97.9814 68.43M88.9834 67.974C89.0132 67.9574 89.0468 67.9486 89.0809 67.9486C89.115 67.9486 89.1486 67.9574 89.1784 67.974L90.7934 68.907C90.8534 68.942 90.8904 69.007 90.8904 69.076V70.941C90.8904 71.011 90.8534 71.075 90.7934 71.11L89.1784 72.042C89.1488 72.0592 89.1152 72.0683 89.0809 72.0683C89.0467 72.0683 89.013 72.0592 88.9834 72.042L87.3694 71.11C87.3396 71.093 87.3148 71.0684 87.2976 71.0387C87.2804 71.0091 87.2713 70.9753 87.2714 70.941V69.076C87.2714 69.007 87.3084 68.942 87.3694 68.907L88.9834 67.974ZM67.0824 71.854C67.0824 71.944 67.0344 72.028 66.9554 72.074L64.0654 73.74C64.0269 73.7626 63.9831 73.7745 63.9384 73.7745C63.8938 73.7745 63.8499 73.7626 63.8114 73.74L60.9214 72.074C60.8829 72.0516 60.8508 72.0196 60.8286 71.981C60.8063 71.9424 60.7945 71.8986 60.7944 71.854V68.516C60.7944 68.426 60.8434 68.341 60.9214 68.295L63.8114 66.627C63.8499 66.6039 63.894 66.5917 63.9389 66.5917C63.9838 66.5917 64.0279 66.6039 64.0664 66.627L66.9574 68.295C66.9957 68.3178 67.0275 68.3502 67.0495 68.3889C67.0716 68.4276 67.0833 68.4714 67.0834 68.516V71.854H67.0824ZM67.8634 47.138C67.7859 47.0957 67.6988 47.0741 67.6105 47.0755C67.5222 47.0769 67.4357 47.1011 67.3596 47.1458C67.2835 47.1905 67.2202 47.2542 67.176 47.3307C67.1318 47.4071 67.1082 47.4937 67.1074 47.582V60.497C67.1072 60.5593 67.0907 60.6204 67.0597 60.6744C67.0286 60.7284 66.9841 60.7734 66.9304 60.805C66.8762 60.836 66.8148 60.8522 66.7524 60.8522C66.69 60.8522 66.6286 60.836 66.5744 60.805L64.4664 59.59C64.312 59.5011 64.137 59.4543 63.9589 59.4543C63.7808 59.4543 63.6058 59.5011 63.4514 59.59L55.0334 64.448C54.8787 64.5373 54.7503 64.6657 54.6609 64.8204C54.5716 64.975 54.5245 65.1504 54.5244 65.329V75.048C54.5244 75.411 54.7184 75.746 55.0324 75.929L63.4504 80.79C63.7644 80.972 64.1524 80.972 64.4674 80.79L72.8874 75.929C73.0417 75.8394 73.1699 75.7109 73.259 75.5563C73.3482 75.4017 73.3952 75.2265 73.3954 75.048V50.821C73.3954 50.453 73.1954 50.113 72.8744 49.933L67.8634 47.138M38.2374 59.407C38.3918 59.3176 38.567 59.2706 38.7454 59.2706C38.9238 59.2706 39.099 59.3176 39.2534 59.407L47.6714 64.264C47.9854 64.446 48.1794 64.782 48.1794 65.145V74.867C48.1794 75.23 47.9854 75.566 47.6714 75.748L39.2544 80.609C39.0997 80.698 38.9244 80.7448 38.7459 80.7448C38.5674 80.7448 38.3921 80.698 38.2374 80.609L29.8224 75.748C29.6681 75.6584 29.5399 75.5299 29.4508 75.3753C29.3616 75.2207 29.3146 75.0455 29.3144 74.867V65.144C29.3144 64.782 29.5084 64.446 29.8224 64.264L38.2374 59.407M22.9294 65.064C22.9294 64.698 22.7374 64.362 22.4214 64.181L14.0064 59.338C13.8651 59.2561 13.7057 59.2104 13.5424 59.205H13.4554C13.2922 59.2105 13.1328 59.2562 12.9914 59.338L4.57541 64.181C4.42058 64.2706 4.29205 64.3994 4.20271 64.5544C4.11337 64.7094 4.06637 64.8851 4.06641 65.064L4.08441 78.104C4.08441 78.286 4.17941 78.455 4.33841 78.543C4.41454 78.5892 4.50187 78.6136 4.59091 78.6136C4.67994 78.6136 4.76727 78.5892 4.84341 78.543L9.84341 75.679C10.1594 75.491 10.3524 75.16 10.3524 74.797V68.705C10.3524 68.341 10.5444 68.006 10.8594 67.824L12.9894 66.598C13.1434 66.5075 13.3188 66.4602 13.4974 66.461C13.6714 66.461 13.8494 66.505 14.0044 66.598L16.1324 67.824C16.4474 68.006 16.6414 68.341 16.6414 68.705V74.797C16.6414 75.16 16.8364 75.493 17.1504 75.679L22.1504 78.543C22.2275 78.5871 22.3148 78.6101 22.4036 78.6099C22.4924 78.6097 22.5796 78.5862 22.6565 78.5418C22.7334 78.4974 22.7973 78.4336 22.8419 78.3568C22.8864 78.28 22.91 78.1928 22.9104 78.104L22.9294 65.064" fill="#83CD29"/>
</svg>
