<svg width="128" height="128" viewBox="0 0 128 128" fill="none" xmlns="http://www.w3.org/2000/svg">
<path d="M1.69922 98.5999C1.09922 98.2999 0.699219 97.5999 0.699219 96.7999C0.699219 95.5999 1.59922 94.6999 2.79922 94.6999C3.19922 94.6999 3.59922 94.7999 3.89922 94.9999C6.09922 96.4999 8.49922 97.1999 10.5992 97.1999C12.8992 97.1999 14.1992 96.1999 14.1992 94.6999V94.5999C14.1992 92.7999 11.6992 92.1999 8.99922 91.3999C5.59922 90.3999 1.79922 88.9999 1.79922 84.5999V84.4999C1.79922 80.0999 5.39922 77.4999 9.99922 77.4999C12.4992 77.4999 14.9992 78.1999 17.2992 79.3999C17.9992 79.7999 18.5992 80.4999 18.5992 81.3999C18.5992 82.5999 17.5992 83.4999 16.3992 83.4999C15.9992 83.4999 15.6992 83.3999 15.2992 83.1999C13.3992 82.1999 11.4992 81.5999 9.89922 81.5999C7.79922 81.5999 6.69922 82.5999 6.69922 83.8999V83.9999C6.69922 85.6999 9.19922 86.3999 11.8992 87.2999C15.2992 88.2999 19.0992 89.8999 19.0992 93.9999V94.0999C19.0992 98.9999 15.2992 101.4 10.4992 101.4C7.59922 101.4 4.39922 100.5 1.69922 98.5999M39.7992 89.4999C39.7992 84.9999 36.7992 82.0999 33.1992 82.0999C29.5992 82.0999 26.4992 85.0999 26.4992 89.4999V89.5999C26.4992 93.9999 29.5992 96.9999 33.1992 96.9999C36.7992 96.7999 39.7992 93.9999 39.7992 89.4999ZM21.3992 80.1999C21.3992 78.6999 22.4992 77.4999 23.9992 77.4999C25.4992 77.4999 26.6992 78.6999 26.6992 80.1999V81.7999C28.3992 79.3999 30.7992 77.4999 34.4992 77.4999C39.8992 77.4999 45.1992 81.7999 45.1992 89.3999V89.4999C45.1992 97.0999 39.9992 101.4 34.4992 101.4C30.6992 101.4 28.2992 99.4999 26.6992 97.3999V105.5C26.6992 107 25.4992 108.1 23.9992 108.1C22.5992 108.1 21.3992 107 21.3992 105.5V80.1999ZM47.3992 80.0999C47.3992 78.5999 48.4992 77.3999 49.9992 77.3999C51.4992 77.3999 52.6992 78.5999 52.6992 80.0999V81.3999C52.9992 79.3999 56.1992 77.4999 58.4992 77.4999C60.1992 77.4999 61.0992 78.5999 61.0992 80.0999C61.0992 81.4999 60.1992 82.3999 58.9992 82.5999C55.1992 83.2999 52.5992 86.4999 52.5992 91.0999V98.6999C52.5992 100.1 51.3992 101.3 49.8992 101.3C48.4992 101.3 47.2992 100.2 47.2992 98.6999V80.0999M63.4992 80.0999C63.4992 78.5999 64.6992 77.3999 66.1992 77.3999C67.6992 77.3999 68.8992 78.5999 68.8992 80.0999V98.6999C68.8992 100.2 67.6992 101.3 66.1992 101.3C64.6992 101.3 63.4992 100.2 63.4992 98.6999V80.0999ZM71.1992 80.1999C71.1992 78.6999 72.3992 77.4999 73.8992 77.4999C75.3992 77.4999 76.6992 78.6999 76.6992 80.1999V81.2999C78.1992 79.1999 80.4992 77.4999 84.1992 77.4999C89.5992 77.4999 92.6992 80.9999 92.6992 86.2999V98.6999C92.6992 100.2 91.4992 101.3 89.9992 101.3C88.4992 101.3 87.1992 100.2 87.1992 98.6999V87.8999C87.1992 84.2999 85.2992 82.2999 82.0992 82.2999C78.8992 82.2999 76.6992 84.3999 76.6992 87.9999V98.6999C76.6992 100.2 75.4992 101.3 73.8992 101.3C72.3992 101.3 71.1992 100.2 71.1992 98.6999V80.1999ZM106.499 96.8999C102.799 96.8999 99.6992 94.0999 99.6992 89.4999V89.3999C99.6992 84.8999 102.799 81.9999 106.499 81.9999C110.199 81.9999 113.399 84.9999 113.399 89.3999V89.4999C113.399 93.8999 110.199 96.8999 106.499 96.8999ZM115.999 77.5999C114.499 77.5999 113.299 78.7999 113.299 80.2999V81.8999C111.499 79.4999 109.099 77.5999 105.199 77.5999C99.5992 77.5999 94.1992 81.8999 94.1992 89.5999V89.6999C94.1992 97.2999 99.5992 101.7 105.199 101.7C109.099 101.7 111.599 99.7999 113.299 97.6999C112.999 101.9 110.399 104 105.799 104C103.099 104 100.699 103.3 98.4992 102.2C98.1992 102.1 97.8992 102 97.4992 102C96.1992 102 95.1992 103 95.1992 104.2C95.1992 105.2 95.7992 105.9 96.6992 106.3C99.5992 107.7 102.499 108.4 105.899 108.4C110.199 108.4 113.499 107.4 115.699 105.3C117.699 103.4 118.799 100.5 118.799 96.5999V80.1999C118.699 78.6999 117.499 77.5999 115.999 77.5999ZM68.8992 71.0999C68.8992 72.4999 67.6992 73.6999 66.1992 73.6999C64.6992 73.6999 63.4992 72.4999 63.4992 71.0999C63.4992 69.6999 64.6992 68.4999 66.1992 68.4999C67.6992 68.4999 68.8992 69.6999 68.8992 71.0999ZM82.8992 53.7999C76.9992 61.5999 64.2992 58.9999 56.0992 59.2999C56.0992 59.2999 54.6992 59.3999 53.1992 59.5999C53.1992 59.5999 53.7992 59.3999 54.3992 59.0999C60.0992 57.1999 62.7992 56.7999 66.2992 54.9999C72.7992 51.6999 79.2992 44.5999 80.5992 37.1999C78.0992 44.2999 70.5992 50.3999 63.6992 52.8999C58.9992 54.5999 50.4992 56.1999 50.4992 56.1999L50.1992 55.9999C44.3992 53.2999 44.1992 40.9999 54.7992 37.0999C59.3992 35.3999 63.7992 36.2999 68.7992 35.1999C74.0992 33.9999 80.2992 30.0999 82.7992 24.9999C85.5992 33.2999 88.9992 45.9999 82.8992 53.7999V53.7999ZM82.9992 22.5999C82.2992 24.1999 81.3992 25.6999 80.3992 26.9999C75.9992 22.5999 69.8992 19.8999 63.0992 19.8999C49.7992 19.8999 38.9992 30.4999 38.9992 43.3999C38.9992 50.1999 41.9992 56.2999 46.6992 60.5999L47.1992 61.0999C46.2992 60.3999 46.1992 59.0999 46.8992 58.2999C47.5992 57.3999 48.8992 57.2999 49.7992 57.9999C50.6992 58.6999 50.7992 59.9999 50.0992 60.7999C49.3992 61.6999 48.0992 61.7999 47.1992 61.0999L47.5992 61.3999C51.7992 64.7999 57.1992 66.8999 63.0992 66.8999C75.7992 66.8999 86.1992 57.1999 87.0992 45.0999C87.8992 39.1999 86.0992 31.5999 82.9992 22.5999M125.099 79.1999H124.199V80.3999H125.099C125.399 80.3999 125.699 80.1999 125.699 79.7999C125.699 79.3999 125.399 79.1999 125.099 79.1999V79.1999ZM125.599 82.1999L124.699 80.7999H124.099V82.1999H123.599V78.7999H124.999C125.599 78.7999 126.099 79.1999 126.099 79.7999C126.099 80.5999 125.399 80.7999 125.199 80.7999L126.099 82.1999H125.599ZM124.799 77.8999C123.399 77.8999 122.199 78.9999 122.199 80.3999C122.199 81.7999 123.399 82.8999 124.799 82.8999C126.199 82.8999 127.399 81.7999 127.399 80.3999C127.399 79.0999 126.199 77.8999 124.799 77.8999ZM124.799 83.4999C123.099 83.4999 121.699 82.1999 121.699 80.4999C121.699 78.7999 123.099 77.4999 124.799 77.4999C126.499 77.4999 127.899 78.7999 127.899 80.4999C127.899 82.0999 126.499 83.4999 124.799 83.4999Z" fill="#5FB832"/>
</svg>
