<svg width="128" height="128" viewBox="0 0 128 128" fill="none" xmlns="http://www.w3.org/2000/svg">
<path d="M126.329 34.06C126.328 31.4301 126.064 28.807 125.539 26.23C125.014 23.5919 124.122 21.0404 122.889 18.65C121.6 16.3346 119.999 14.208 118.129 12.33C116.201 10.4434 113.961 8.90408 111.509 7.77999C109.089 6.55969 106.501 5.70699 103.829 5.24999C101.179 4.73999 98.2692 4.73999 95.6192 4.48999H30.2492C28.2101 4.52319 26.1755 4.69358 24.1592 4.99999C22.1583 5.23554 20.1997 5.74707 18.3392 6.51999C17.8092 6.76999 17.0192 7.02999 16.4892 7.27999C14.729 8.22355 13.0558 9.32117 11.4892 10.56C10.9592 11.07 10.4292 11.32 9.89922 11.82C7.95028 13.6277 6.3385 15.7677 5.13922 18.14C3.82955 20.4968 2.93325 23.0605 2.48922 25.72C2.09514 28.3151 1.83148 30.9284 1.69922 33.55V93.94C1.70004 96.5698 1.9647 99.193 2.48922 101.77C3.014 104.408 3.90601 106.96 5.13922 109.35C6.428 111.665 8.02974 113.792 9.89922 115.67C11.8274 117.557 14.067 119.096 16.5192 120.22C18.9393 121.44 21.5277 122.293 24.1992 122.75C26.8492 123.26 29.7592 123.26 32.4092 123.51H95.6292C98.3834 123.508 101.132 123.254 103.839 122.75C106.511 122.293 109.099 121.44 111.519 120.22C113.919 119.006 116.146 117.475 118.139 115.67C120.088 113.862 121.7 111.722 122.899 109.35C124.209 106.993 125.105 104.429 125.549 101.77C125.943 99.1748 126.207 96.5616 126.339 93.94V34.06H126.329Z" fill="#F05138"/>
<path d="M84.9998 96.4999C73.8898 102.63 58.6198 103.26 43.2498 96.9699C31.266 92.1075 21.0197 83.7565 13.8398 72.9999C17.1766 75.5542 20.822 77.6776 24.6898 79.3199C40.5598 86.4199 56.4198 85.9299 67.5898 79.3199C51.6898 67.6599 38.1898 52.4999 28.1298 40.1199C26.1446 38.0277 24.3726 35.7431 22.8398 33.2999C34.9998 43.9099 54.3398 57.2999 61.2198 61.0899C51.3966 51.0248 42.3695 40.2123 34.2198 28.7499C47.7669 41.9148 62.6739 53.6037 78.6898 63.6199C79.3998 63.9999 79.9498 64.3199 80.3898 64.6199C80.8593 63.4738 81.2633 62.3019 81.5998 61.1099C85.3098 48.2199 81.0698 33.5699 71.8098 21.4399C93.2498 33.8099 106 57.0499 100.66 76.5099C100.52 77.0399 100.37 77.5099 100.21 78.0599L100.4 78.2799C110.99 90.9099 108.08 104.28 106.75 101.78C101 90.9999 90.3698 94.3299 84.9998 96.4999Z" fill="#FEFEFE"/>
</svg>
