<svg width="128" height="128" viewBox="0 0 128 128" fill="none" xmlns="http://www.w3.org/2000/svg">
<path d="M23.0632 6.84512C22.9197 6.85041 22.7791 6.88765 22.6518 6.95413C22.5244 7.02061 22.4135 7.11466 22.3271 7.22942C22.2407 7.34418 22.181 7.47678 22.1523 7.61754C22.1236 7.7583 22.1266 7.90369 22.1612 8.04312L43.0332 92.5231C43.0741 92.6874 43.1575 92.8381 43.275 92.96C43.3924 93.082 43.5399 93.1709 43.7025 93.2179C43.8652 93.2649 44.0374 93.2683 44.2018 93.2278C44.3662 93.1873 44.517 93.1043 44.6392 92.9871L107.422 32.5881C107.544 32.4706 107.633 32.323 107.681 32.1602C107.728 31.9973 107.731 31.825 107.69 31.6604C107.65 31.4959 107.566 31.3449 107.449 31.2227C107.332 31.1004 107.184 31.0113 107.021 30.9641L23.3652 6.88212C23.2672 6.85391 23.1652 6.84142 23.0632 6.84512V6.84512ZM24.4372 9.20012L104.877 32.3571L44.5072 90.4341L24.4372 9.20012V9.20012Z" fill="black"/>
<path d="M64.8993 18.8859C64.655 18.8899 64.4213 18.9864 64.2453 19.1559L32.8683 49.3609C32.7462 49.4785 32.6571 49.6261 32.6101 49.789C32.5631 49.9519 32.5598 50.1243 32.6006 50.2889C32.6413 50.4535 32.7246 50.6044 32.8422 50.7266C32.9598 50.8488 33.1074 50.9378 33.2703 50.9849L75.0733 63.0329C75.2362 63.0798 75.4085 63.083 75.573 63.0422C75.7375 63.0014 75.8883 62.918 76.0104 62.8005C76.1325 62.683 76.2216 62.5354 76.2686 62.3726C76.3156 62.2097 76.3189 62.0374 76.2783 61.8729L65.8523 19.6199C65.7998 19.4076 65.6769 19.2195 65.5036 19.0861C65.3303 18.9528 65.1169 18.8822 64.8983 18.8859H64.8993ZM64.3793 21.7079L74.0023 60.7149L35.4133 49.5919L64.3793 21.7079V21.7079Z" fill="black"/>
<path d="M49.3264 33.8349C49.1832 33.8405 49.0431 33.878 48.9162 33.9444C48.7893 34.0109 48.6787 34.1048 48.5926 34.2193C48.5064 34.3338 48.4468 34.466 48.4181 34.6064C48.3893 34.7468 48.3922 34.8918 48.4264 35.0309L53.6024 56.0189C53.643 56.1837 53.7262 56.3348 53.8438 56.4572C53.9613 56.5796 54.109 56.6688 54.2721 56.716C54.4351 56.7631 54.6076 56.7665 54.7723 56.7258C54.9371 56.685 55.0882 56.6016 55.2104 56.4839L70.7974 41.4629C70.9195 41.3452 71.0085 41.1975 71.0555 41.0345C71.1024 40.8716 71.1056 40.6991 71.0648 40.5345C71.0239 40.37 70.9405 40.219 70.8228 40.0969C70.7051 39.9748 70.5574 39.8858 70.3944 39.8389L49.6294 33.8719C49.531 33.8436 49.4287 33.8311 49.3264 33.8349V33.8349ZM50.7004 36.1889L68.2524 41.2319L55.0764 53.9299L50.7004 36.1899V36.1889Z" fill="black"/>
<path d="M44.163 12.8689C43.9184 12.8727 43.6843 12.9692 43.508 13.1389L27.921 28.1679C27.7989 28.2855 27.7098 28.4331 27.6629 28.596C27.6159 28.7589 27.6126 28.9313 27.6533 29.0959C27.694 29.2605 27.7774 29.4115 27.8949 29.5336C28.0125 29.6558 28.1601 29.7449 28.323 29.7919L49.089 35.7589C49.2519 35.8058 49.4242 35.809 49.5887 35.7682C49.7532 35.7274 49.9041 35.6441 50.0262 35.5265C50.1483 35.409 50.2373 35.2614 50.2843 35.0986C50.3313 34.9358 50.3347 34.7634 50.294 34.5989L45.117 13.6049C45.0647 13.3925 44.9419 13.2041 44.7686 13.0705C44.5953 12.937 44.3818 12.8663 44.163 12.8699V12.8689ZM43.641 15.6939L48.018 33.4409L30.464 28.3969L43.641 15.6939V15.6939ZM85.699 24.8379C85.4551 24.8422 85.2218 24.9387 85.046 25.1079L69.456 40.1299C69.3344 40.2477 69.2459 40.3955 69.1994 40.5583C69.1529 40.7211 69.15 40.8933 69.1911 41.0576C69.2321 41.2219 69.3156 41.3725 69.4332 41.4944C69.5507 41.6162 69.6983 41.705 69.861 41.7519L90.625 47.7189C90.7879 47.7658 90.9602 47.769 91.1247 47.7282C91.2892 47.6874 91.4401 47.6041 91.5622 47.4865C91.6843 47.369 91.7733 47.2214 91.8203 47.0586C91.8673 46.8958 91.8707 46.7234 91.83 46.5589L86.653 25.5719C86.6005 25.3596 86.4776 25.1715 86.3043 25.0381C86.131 24.9048 85.9176 24.8342 85.699 24.8379V24.8379ZM85.179 27.6619L89.556 45.4019L72.003 40.3579L85.179 27.6619ZM54.523 54.8439C54.2791 54.8482 54.0458 54.9447 53.87 55.1139L38.28 70.1339C38.1579 70.2517 38.069 70.3996 38.0222 70.5626C37.9754 70.7257 37.9723 70.8983 38.0134 71.0629C38.0544 71.2275 38.1381 71.3784 38.256 71.5004C38.3739 71.6224 38.5219 71.7112 38.685 71.7579L59.457 77.7249C59.6198 77.7715 59.792 77.7746 59.9564 77.7337C60.1207 77.6928 60.2714 77.6094 60.3934 77.4919C60.5153 77.3744 60.6043 77.2269 60.6512 77.0642C60.6982 76.9015 60.7016 76.7293 60.661 76.5649L55.477 55.5779C55.4245 55.3656 55.3016 55.1775 55.1283 55.0441C54.955 54.9108 54.7416 54.8402 54.523 54.8439V54.8439ZM54.003 57.6669L58.385 75.4069L40.827 70.3649L54.003 57.6669V57.6669Z" fill="black"/>
<path d="M25.9566 114.7C25.5046 115.741 24.6506 116.194 23.8386 116.194C22.8116 116.194 21.8496 115.447 21.8496 113.946V108.626H26.1656V107.255H21.8496V103.514L20.3276 103.406V107.255H18.6836V108.626H20.3276V113.946C20.3276 116.323 22.0576 117.694 23.8606 117.694C25.1806 117.694 26.5526 116.984 27.3206 115.318L25.9566 114.7ZM38.7166 116.237V112.13C38.7166 109.588 37.6536 106.975 35.0186 106.975C33.7546 106.975 32.4336 107.556 31.9386 108.454V103.514L30.4226 103.406V117.414H31.9376V110.076C32.3906 109.179 33.0296 108.496 34.2716 108.496C36.0666 108.496 37.0936 109.947 37.0936 111.742V117.414H38.8236C38.7156 117.048 38.7156 116.624 38.7156 116.237H38.7166ZM50.4336 108.92L51.3736 107.448C50.2256 106.996 49.8376 106.975 49.4506 106.975C48.6606 106.975 47.0596 107.104 46.3486 108.454C46.3486 108.217 46.4986 107.448 46.6286 107.254H42.8876V108.389L44.9626 108.497V116.172H41.8176V117.414H49.5576C49.4506 117.048 49.4506 116.624 49.4506 116.237V116.172H46.4346V110.335C46.7796 108.813 48.7036 107.98 50.4346 108.92H50.4336ZM58.1306 106.975C55.2226 106.975 53.7006 108.877 53.6216 112.151V113.071C53.6216 115.763 55.5456 117.694 58.2166 117.694C59.7176 117.694 61.1036 117.048 62.0866 115.978L61.1896 114.866C60.0336 115.978 59.0716 116.302 58.1736 116.302C56.3786 116.302 55.1156 114.973 55.1156 113.07L62.3676 113.027L62.3886 112.151C62.5186 108.856 61.0176 106.975 58.1306 106.975V106.975ZM60.7876 111.699H55.1376C55.2226 109.609 56.0126 108.303 57.9796 108.303C59.9476 108.303 60.8876 109.523 60.7876 111.699ZM69.8916 106.975C66.9836 106.975 65.4616 108.877 65.3756 112.151V113.071C65.3756 115.763 67.2996 117.694 69.9776 117.694C70.7063 117.691 71.4265 117.537 72.0927 117.242C72.7588 116.947 73.3564 116.516 73.8476 115.978L72.9506 114.866C71.7946 115.978 70.8326 116.302 69.9346 116.302C68.1396 116.302 66.8766 114.973 66.8766 113.07L74.1286 113.027L74.1496 112.151C74.2796 108.856 72.7786 106.975 69.8916 106.975V106.975ZM72.5416 111.699H66.8976C66.9836 109.609 67.7736 108.303 69.7406 108.303C71.7086 108.303 72.6486 109.523 72.5406 111.699H72.5416ZM80.4536 116.56C80.4536 117.285 80.8636 117.694 81.5886 117.694C82.2916 117.694 82.7016 117.285 82.7016 116.56C82.7016 115.85 82.2916 115.447 81.5886 115.447C80.8846 115.447 80.4536 115.849 80.4536 116.56ZM95.1436 105.46C95.8476 105.46 96.2576 105.072 96.2576 104.325C96.2576 103.615 95.8476 103.234 95.1446 103.234C94.4406 103.234 94.0316 103.614 94.0316 104.325C94.0316 105.072 94.4186 105.46 95.1446 105.46H95.1436ZM92.4306 107.255V108.389L94.5266 108.497V117.414C94.5266 118.929 93.5646 119.662 92.5376 119.662C91.6976 119.662 90.8436 119.209 90.3976 118.182L89.0476 118.779C89.8166 120.473 91.1876 121.155 92.5166 121.155C94.3116 121.155 96.0416 119.805 96.0416 117.415L96.0636 107.255H92.4306ZM105.707 111.599C103.761 111.232 102.863 110.759 102.863 109.947C102.863 109.028 103.976 108.367 105.534 108.367C106.647 108.367 107.394 108.705 108.227 109.588L109.189 108.626C108.442 107.556 107.078 106.975 105.362 106.975C103.014 106.975 101.427 108.174 101.427 109.99C101.427 111.577 102.647 112.496 105.577 113.092C107.351 113.437 107.889 113.752 107.889 114.442C107.889 115.447 106.669 116.323 105.276 116.323C104.084 116.323 103.014 115.663 102.03 114.507L101.004 115.555C102.052 116.941 103.438 117.695 105.254 117.695C107.717 117.695 109.318 116.323 109.318 114.42C109.318 112.877 108.27 112.087 105.707 111.599V111.599Z" fill="black"/>
</svg>
